<svg width="71" height="71" viewBox="0 0 71 71" fill="none" xmlns="http://www.w3.org/2000/svg">
<rect x="35.3553" y="1.41421" width="48" height="48" transform="rotate(45 35.3553 1.41421)" stroke="#C9C9C9" stroke-width="2"/>
<rect x="18" y="35" width="7" height="15" fill="#D9D9D9"/>
<path d="M18 50.5V50H25V57.5L18 50.5Z" fill="#D9D9D9"/>
<rect x="28" y="28" width="7" height="32" fill="#D9D9D9"/>
<path d="M28 60.5V60H35V67.5L28 60.5Z" fill="#D9D9D9"/>
<rect x="38" y="22" width="7" height="36" fill="#D9D9D9"/>
<rect x="48" y="23" width="7" height="25" fill="#D9D9D9"/>
<path d="M48 19V23H55V22.5L51.5 19H48Z" fill="#D9D9D9"/>
<path d="M45 58.5V58H38V65.5L45 58.5Z" fill="#D9D9D9"/>
<path d="M48 48H55V48.5L48 55.2976V48Z" fill="#D9D9D9"/>
</svg>
